<svg width="194" height="30" viewBox="0 0 194 30" fill="none" xmlns="http://www.w3.org/2000/svg">
<path d="M58 5C59.1046 5 60 5.89543 60 7C60 11.8378 56.5644 15.8722 52 16.7988V23C52 24.1046 51.1046 25 50 25C48.8954 25 48 24.1046 48 23V16.7988C43.4356 15.8722 40 11.8378 40 7C40 5.89543 40.8954 5 42 5C43.1046 5 44 5.89543 44 7C44 10.3137 46.6863 13 50 13C53.3137 13 56 10.3137 56 7C56 5.89543 56.8954 5 58 5Z" fill="white"/>
<circle cx="70" cy="15" r="8" stroke="white" stroke-width="4"/>
<mask id="path-3-inside-1_79_24" fill="white">
<path d="M84 5C85.1046 5 86 5.89543 86 7V21H96C97.1046 21 98 21.8954 98 23C98 24.1046 97.1046 25 96 25H84C82.8954 25 82 24.1046 82 23V7C82 5.89543 82.8954 5 84 5Z"/>
</mask>
<path d="M84 5C85.1046 5 86 5.89543 86 7V21H96C97.1046 21 98 21.8954 98 23C98 24.1046 97.1046 25 96 25H84C82.8954 25 82 24.1046 82 23V7C82 5.89543 82.8954 5 84 5Z" fill="white"/>
<path d="M86 21H85V22H86V21ZM84 5V6C84.5523 6 85 6.44772 85 7H86H87C87 5.34315 85.6569 4 84 4V5ZM86 7H85V21H86H87V7H86ZM86 21V22H96V21V20H86V21ZM96 21V22C96.5523 22 97 22.4477 97 23H98H99C99 21.3431 97.6569 20 96 20V21ZM98 23H97C97 23.5523 96.5523 24 96 24V25V26C97.6569 26 99 24.6569 99 23H98ZM96 25V24H84V25V26H96V25ZM84 25V24C83.4477 24 83 23.5523 83 23H82H81C81 24.6569 82.3431 26 84 26V25ZM82 23H83V7H82H81V23H82ZM82 7H83C83 6.44772 83.4477 6 84 6V5V4C82.3431 4 81 5.34315 81 7H82Z" fill="white" mask="url(#path-3-inside-1_79_24)"/>
<path d="M116 15C116 11.6863 113.314 9 110 9C106.79 9 104.168 11.5211 104.008 14.6914L104 15V16L116 16V15ZM100.013 14.4854C100.281 9.20167 104.65 5 110 5C115.523 5 120 9.47715 120 15V23C120 24.1046 119.105 25 118 25C116.895 25 116 24.1046 116 23V20H104V23C104 24.1046 103.105 25 102 25C100.895 25 100 24.1046 100 23V15L100.013 14.4854Z" fill="white"/>
<mask id="path-6-inside-2_79_24" fill="white">
<path d="M140 5C141.105 5 142 5.89543 142 7V23C142 24.1046 141.105 25 140 25C139.449 25 138.95 24.7768 138.588 24.416L126 11.8281V23C126 24.1046 125.105 25 124 25C122.895 25 122 24.1046 122 23V7C122 5.89543 122.895 5 124 5C124.552 5 125.052 5.22401 125.414 5.58594L138 18.1719V7C138 5.89543 138.895 5 140 5Z"/>
</mask>
<path d="M140 5C141.105 5 142 5.89543 142 7V23C142 24.1046 141.105 25 140 25C139.449 25 138.95 24.7768 138.588 24.416L126 11.8281V23C126 24.1046 125.105 25 124 25C122.895 25 122 24.1046 122 23V7C122 5.89543 122.895 5 124 5C124.552 5 125.052 5.22401 125.414 5.58594L138 18.1719V7C138 5.89543 138.895 5 140 5Z" fill="white"/>
<path d="M138.588 24.416L137.881 25.1231L137.882 25.1241L138.588 24.416ZM126 11.8281L126.707 11.121L125 9.41391V11.8281H126ZM138 18.1719L137.293 18.879L139 20.5861V18.1719H138ZM140 5V6C140.552 6 141 6.44772 141 7H142H143C143 5.34315 141.657 4 140 4V5ZM142 7H141V23H142H143V7H142ZM142 23H141C141 23.5523 140.552 24 140 24V25V26C141.657 26 143 24.6569 143 23H142ZM140 25V24C139.724 24 139.476 23.8896 139.294 23.7079L138.588 24.416L137.882 25.1241C138.423 25.664 139.173 26 140 26V25ZM138.588 24.416L139.295 23.7089L126.707 11.121L126 11.8281L125.293 12.5352L137.881 25.1231L138.588 24.416ZM126 11.8281H125V23H126H127V11.8281H126ZM126 23H125C125 23.5523 124.552 24 124 24V25V26C125.657 26 127 24.6569 127 23H126ZM124 25V24C123.448 24 123 23.5523 123 23H122H121C121 24.6569 122.343 26 124 26V25ZM122 23H123V7H122H121V23H122ZM122 7H123C123 6.44772 123.448 6 124 6V5V4C122.343 4 121 5.34315 121 7H122ZM124 5V6C124.276 6 124.525 6.11079 124.707 6.29304L125.414 5.58594L126.121 4.87883C125.58 4.33723 124.828 4 124 4V5ZM125.414 5.58594L124.707 6.29304L137.293 18.879L138 18.1719L138.707 17.4648L126.121 4.87883L125.414 5.58594ZM138 18.1719H139V7H138H137V18.1719H138ZM138 7H139C139 6.44772 139.448 6 140 6V5V4C138.343 4 137 5.34315 137 7H138Z" fill="white" mask="url(#path-6-inside-2_79_24)"/>
<mask id="path-8-inside-3_79_24" fill="white">
<path d="M170 5C171.105 5 172 5.89543 172 7V23C172 24.1046 171.105 25 170 25C168.895 25 168 24.1046 168 23V11.8359L163.416 16.4199L163.411 16.415C163.049 16.7758 162.551 17 162 17C161.448 17 160.949 16.7764 160.587 16.415V16.416L156 11.8281V23C156 24.1046 155.105 25 154 25C152.895 25 152 24.1046 152 23V7C152 5.89543 152.895 5 154 5C154.553 5 155.054 5.22481 155.416 5.58789L162 12.1709L168.586 5.58594C168.948 5.22401 169.448 5 170 5Z"/>
</mask>
<path d="M170 5C171.105 5 172 5.89543 172 7V23C172 24.1046 171.105 25 170 25C168.895 25 168 24.1046 168 23V11.8359L163.416 16.4199L163.411 16.415C163.049 16.7758 162.551 17 162 17C161.448 17 160.949 16.7764 160.587 16.415V16.416L156 11.8281V23C156 24.1046 155.105 25 154 25C152.895 25 152 24.1046 152 23V7C152 5.89543 152.895 5 154 5C154.553 5 155.054 5.22481 155.416 5.58789L162 12.1709L168.586 5.58594C168.948 5.22401 169.448 5 170 5Z" fill="white"/>
<path d="M168 11.8359H169V9.42172L167.293 11.1288L168 11.8359ZM163.416 16.4199L162.709 17.127L163.416 17.8341L164.123 17.127L163.416 16.4199ZM163.411 16.415L164.118 15.7079L163.412 15.0018L162.705 15.707L163.411 16.415ZM160.587 16.415L161.294 15.7074L159.587 14.0032V16.415H160.587ZM160.587 16.416L159.88 17.123L161.587 18.8306V16.416H160.587ZM156 11.8281L156.707 11.1211L155 9.41355V11.8281H156ZM155.416 5.58789L154.708 6.29403L154.709 6.29505L155.416 5.58789ZM162 12.1709L161.293 12.8781L162 13.585L162.707 12.8781L162 12.1709ZM168.586 5.58594L169.293 6.2931L169.293 6.29304L168.586 5.58594ZM170 5V6C170.552 6 171 6.44772 171 7H172H173C173 5.34315 171.657 4 170 4V5ZM172 7H171V23H172H173V7H172ZM172 23H171C171 23.5523 170.552 24 170 24V25V26C171.657 26 173 24.6569 173 23H172ZM170 25V24C169.448 24 169 23.5523 169 23H168H167C167 24.6569 168.343 26 170 26V25ZM168 23H169V11.8359H168H167V23H168ZM168 11.8359L167.293 11.1288L162.709 15.7128L163.416 16.4199L164.123 17.127L168.707 12.543L168 11.8359ZM163.416 16.4199L164.123 15.7128L164.118 15.7079L163.411 16.415L162.704 17.1221L162.709 17.127L163.416 16.4199ZM163.411 16.415L162.705 15.707C162.522 15.8899 162.274 16 162 16V17V18C162.829 18 163.577 17.6617 164.117 17.1231L163.411 16.415ZM162 17V16C161.724 16 161.476 15.8894 161.294 15.7074L160.587 16.415L159.88 17.1226C160.422 17.6634 161.172 18 162 18V17ZM160.587 16.415H159.587V16.416H160.587H161.587V16.415H160.587ZM160.587 16.416L161.294 15.709L156.707 11.1211L156 11.8281L155.293 12.5352L159.88 17.123L160.587 16.416ZM156 11.8281H155V23H156H157V11.8281H156ZM156 23H155C155 23.5523 154.552 24 154 24V25V26C155.657 26 157 24.6569 157 23H156ZM154 25V24C153.448 24 153 23.5523 153 23H152H151C151 24.6569 152.343 26 154 26V25ZM152 23H153V7H152H151V23H152ZM152 7H153C153 6.44772 153.448 6 154 6V5V4C152.343 4 151 5.34315 151 7H152ZM154 5V6C154.277 6 154.526 6.11118 154.708 6.29403L155.416 5.58789L156.124 4.88176C155.582 4.33844 154.83 4 154 4V5ZM155.416 5.58789L154.709 6.29505L161.293 12.8781L162 12.1709L162.707 11.4637L156.123 4.88073L155.416 5.58789ZM162 12.1709L162.707 12.8781L169.293 6.2931L168.586 5.58594L167.879 4.87878L161.293 11.4637L162 12.1709ZM168.586 5.58594L169.293 6.29304C169.475 6.11079 169.724 6 170 6V5V4C169.172 4 168.42 4.33723 167.879 4.87883L168.586 5.58594Z" fill="white" mask="url(#path-8-inside-3_79_24)"/>
<path d="M178 15C178 18.3137 180.686 21 184 21C187.314 21 190 18.3137 190 15V12C190 10.8954 190.895 10 192 10C193.105 10 194 10.8954 194 12V15C194 20.5228 189.523 25 184 25C178.477 25 174 20.5228 174 15V7C174 5.89543 174.895 5 176 5C177.105 5 178 5.89543 178 7V15ZM192 5C193.105 5 194 5.89543 194 7C194 8.10457 193.105 9 192 9C190.895 9 190 8.10457 190 7C190 5.89543 190.895 5 192 5Z" fill="white"/>
<path d="M2.94187 12.5816C1.11426 11.5412 -0.000260782 9.45066 4.57705e-08 7.21369V1.68415C4.57705e-08 0.754032 0.695628 0.000274658 1.55401 0.000274658H5.60387C9.34179 0.000274658 12.2161 2.69905 12.4446 6.26944C12.7714 11.3756 7.85299 15.3773 2.94187 12.5816Z" fill="url(#paint0_linear_79_24)"/>
<path d="M11.0383 30H15.897C18.5073 30 20.8469 28.2554 21.7799 25.614L29.8778 2.68352C30.335 1.3891 29.4529 0 28.1738 0H23.3151C20.7048 0 18.3652 1.74436 17.4322 4.38605L9.33428 27.3165C8.87731 28.6109 9.75943 30 11.0383 30Z" fill="url(#paint1_linear_79_24)"/>
<defs>
<linearGradient id="paint0_linear_79_24" x1="0.116616" y1="8.81617" x2="11.8922" y2="3.96971" gradientUnits="userSpaceOnUse">
<stop stop-color="#4F46E5"/>
<stop offset="1" stop-color="#818CF8"/>
</linearGradient>
<linearGradient id="paint1_linear_79_24" x1="31.7098" y1="2.76788" x2="11.7494" y2="19.9484" gradientUnits="userSpaceOnUse">
<stop stop-color="#4F46E5"/>
<stop offset="1" stop-color="#818CF8"/>
</linearGradient>
</defs>
</svg>
