<svg width="196" height="30" viewBox="0 0 196 30" fill="none" xmlns="http://www.w3.org/2000/svg">
<path d="M58 5C59.1046 5 60 5.89543 60 7C60 11.8378 56.5644 15.8722 52 16.7988V23C52 24.1046 51.1046 25 50 25C48.8954 25 48 24.1046 48 23V16.7988C43.4356 15.8722 40 11.8378 40 7C40 5.89543 40.8954 5 42 5C43.1046 5 44 5.89543 44 7C44 10.3137 46.6863 13 50 13C53.3137 13 56 10.3137 56 7C56 5.89543 56.8954 5 58 5Z" fill="white"/>
<path d="M66 15C66 18.3137 68.6863 21 72 21C75.3137 21 78 18.3137 78 15V7C78 5.89543 78.8954 5 80 5C81.1046 5 82 5.89543 82 7V15C82 20.5228 77.5228 25 72 25C66.4772 25 62 20.5228 62 15V7C62 5.89543 62.8954 5 64 5C65.1046 5 66 5.89543 66 7V15Z" fill="white"/>
<mask id="path-3-inside-1_79_802" fill="white">
<path d="M86 5C87.1046 5 88 5.89543 88 7V21H98C99.1046 21 100 21.8954 100 23C100 24.1046 99.1046 25 98 25H86C84.8954 25 84 24.1046 84 23V7C84 5.89543 84.8954 5 86 5Z"/>
</mask>
<path d="M86 5C87.1046 5 88 5.89543 88 7V21H98C99.1046 21 100 21.8954 100 23C100 24.1046 99.1046 25 98 25H86C84.8954 25 84 24.1046 84 23V7C84 5.89543 84.8954 5 86 5Z" fill="white"/>
<path d="M88 21H87V22H88V21ZM86 5V6C86.5523 6 87 6.44772 87 7H88H89C89 5.34315 87.6569 4 86 4V5ZM88 7H87V21H88H89V7H88ZM88 21V22H98V21V20H88V21ZM98 21V22C98.5523 22 99 22.4477 99 23H100H101C101 21.3431 99.6569 20 98 20V21ZM100 23H99C99 23.5523 98.5523 24 98 24V25V26C99.6569 26 101 24.6569 101 23H100ZM98 25V24H86V25V26H98V25ZM86 25V24C85.4477 24 85 23.5523 85 23H84H83C83 24.6569 84.3431 26 86 26V25ZM84 23H85V7H84H83V23H84ZM84 7H85C85 6.44772 85.4477 6 86 6V5V4C84.3431 4 83 5.34315 83 7H84Z" fill="white" mask="url(#path-3-inside-1_79_802)"/>
<path d="M118 15C118 11.6863 115.314 9 112 9C108.686 9 106 11.6863 106 15V16L118 16V15ZM102 15C102 9.47715 106.477 5 112 5C117.523 5 122 9.47715 122 15V23C122 24.1046 121.105 25 120 25C118.895 25 118 24.1046 118 23V20H106V23C106 24.1046 105.105 25 104 25C102.895 25 102 24.1046 102 23V15Z" fill="white"/>
<mask id="path-6-inside-2_79_802" fill="white">
<path d="M142 5C143.105 5 144 5.89543 144 7V23C144 24.1046 143.105 25 142 25C141.449 25 140.95 24.7768 140.588 24.416L128 11.8281V23C128 24.1046 127.105 25 126 25C124.895 25 124 24.1046 124 23V7C124 5.89543 124.895 5 126 5C126.552 5 127.052 5.22401 127.414 5.58594L140 18.1719V7C140 5.89543 140.895 5 142 5Z"/>
</mask>
<path d="M142 5C143.105 5 144 5.89543 144 7V23C144 24.1046 143.105 25 142 25C141.449 25 140.95 24.7768 140.588 24.416L128 11.8281V23C128 24.1046 127.105 25 126 25C124.895 25 124 24.1046 124 23V7C124 5.89543 124.895 5 126 5C126.552 5 127.052 5.22401 127.414 5.58594L140 18.1719V7C140 5.89543 140.895 5 142 5Z" fill="white"/>
<path d="M140.588 24.416L139.881 25.1231L139.882 25.1241L140.588 24.416ZM128 11.8281L128.707 11.121L127 9.41391V11.8281H128ZM140 18.1719L139.293 18.879L141 20.5861V18.1719H140ZM142 5V6C142.552 6 143 6.44772 143 7H144H145C145 5.34315 143.657 4 142 4V5ZM144 7H143V23H144H145V7H144ZM144 23H143C143 23.5523 142.552 24 142 24V25V26C143.657 26 145 24.6569 145 23H144ZM142 25V24C141.724 24 141.476 23.8896 141.294 23.7079L140.588 24.416L139.882 25.1241C140.423 25.664 141.173 26 142 26V25ZM140.588 24.416L141.295 23.7089L128.707 11.121L128 11.8281L127.293 12.5352L139.881 25.1231L140.588 24.416ZM128 11.8281H127V23H128H129V11.8281H128ZM128 23H127C127 23.5523 126.552 24 126 24V25V26C127.657 26 129 24.6569 129 23H128ZM126 25V24C125.448 24 125 23.5523 125 23H124H123C123 24.6569 124.343 26 126 26V25ZM124 23H125V7H124H123V23H124ZM124 7H125C125 6.44772 125.448 6 126 6V5V4C124.343 4 123 5.34315 123 7H124ZM126 5V6C126.276 6 126.525 6.11079 126.707 6.29304L127.414 5.58594L128.121 4.87883C127.58 4.33723 126.828 4 126 4V5ZM127.414 5.58594L126.707 6.29304L139.293 18.879L140 18.1719L140.707 17.4648L128.121 4.87883L127.414 5.58594ZM140 18.1719H141V7H140H139V18.1719H140ZM140 7H141C141 6.44772 141.448 6 142 6V5V4C140.343 4 139 5.34315 139 7H140Z" fill="white" mask="url(#path-6-inside-2_79_802)"/>
<mask id="path-8-inside-3_79_802" fill="white">
<path d="M172 5C173.105 5 174 5.89543 174 7V23C174 24.1046 173.105 25 172 25C170.895 25 170 24.1046 170 23V11.8359L165.416 16.4199L165.411 16.415C165.049 16.7758 164.551 17 164 17C163.448 17 162.949 16.7764 162.587 16.415V16.416L158 11.8281V23C158 24.1046 157.105 25 156 25C154.895 25 154 24.1046 154 23V7C154 5.89543 154.895 5 156 5C156.553 5 157.054 5.22481 157.416 5.58789L164 12.1709L170.586 5.58594C170.948 5.22401 171.448 5 172 5Z"/>
</mask>
<path d="M172 5C173.105 5 174 5.89543 174 7V23C174 24.1046 173.105 25 172 25C170.895 25 170 24.1046 170 23V11.8359L165.416 16.4199L165.411 16.415C165.049 16.7758 164.551 17 164 17C163.448 17 162.949 16.7764 162.587 16.415V16.416L158 11.8281V23C158 24.1046 157.105 25 156 25C154.895 25 154 24.1046 154 23V7C154 5.89543 154.895 5 156 5C156.553 5 157.054 5.22481 157.416 5.58789L164 12.1709L170.586 5.58594C170.948 5.22401 171.448 5 172 5Z" fill="white"/>
<path d="M170 11.8359H171V9.42172L169.293 11.1288L170 11.8359ZM165.416 16.4199L164.709 17.127L165.416 17.8341L166.123 17.127L165.416 16.4199ZM165.411 16.415L166.118 15.7079L165.412 15.0018L164.705 15.707L165.411 16.415ZM162.587 16.415L163.294 15.7074L161.587 14.0032V16.415H162.587ZM162.587 16.416L161.88 17.123L163.587 18.8306V16.416H162.587ZM158 11.8281L158.707 11.1211L157 9.41355V11.8281H158ZM157.416 5.58789L156.708 6.29403L156.709 6.29505L157.416 5.58789ZM164 12.1709L163.293 12.8781L164 13.585L164.707 12.8781L164 12.1709ZM170.586 5.58594L171.293 6.2931L171.293 6.29304L170.586 5.58594ZM172 5V6C172.552 6 173 6.44772 173 7H174H175C175 5.34315 173.657 4 172 4V5ZM174 7H173V23H174H175V7H174ZM174 23H173C173 23.5523 172.552 24 172 24V25V26C173.657 26 175 24.6569 175 23H174ZM172 25V24C171.448 24 171 23.5523 171 23H170H169C169 24.6569 170.343 26 172 26V25ZM170 23H171V11.8359H170H169V23H170ZM170 11.8359L169.293 11.1288L164.709 15.7128L165.416 16.4199L166.123 17.127L170.707 12.543L170 11.8359ZM165.416 16.4199L166.123 15.7128L166.118 15.7079L165.411 16.415L164.704 17.1221L164.709 17.127L165.416 16.4199ZM165.411 16.415L164.705 15.707C164.522 15.8899 164.274 16 164 16V17V18C164.829 18 165.577 17.6617 166.117 17.1231L165.411 16.415ZM164 17V16C163.724 16 163.476 15.8894 163.294 15.7074L162.587 16.415L161.88 17.1226C162.422 17.6634 163.172 18 164 18V17ZM162.587 16.415H161.587V16.416H162.587H163.587V16.415H162.587ZM162.587 16.416L163.294 15.709L158.707 11.1211L158 11.8281L157.293 12.5352L161.88 17.123L162.587 16.416ZM158 11.8281H157V23H158H159V11.8281H158ZM158 23H157C157 23.5523 156.552 24 156 24V25V26C157.657 26 159 24.6569 159 23H158ZM156 25V24C155.448 24 155 23.5523 155 23H154H153C153 24.6569 154.343 26 156 26V25ZM154 23H155V7H154H153V23H154ZM154 7H155C155 6.44772 155.448 6 156 6V5V4C154.343 4 153 5.34315 153 7H154ZM156 5V6C156.277 6 156.526 6.11118 156.708 6.29403L157.416 5.58789L158.124 4.88176C157.582 4.33844 156.83 4 156 4V5ZM157.416 5.58789L156.709 6.29505L163.293 12.8781L164 12.1709L164.707 11.4637L158.123 4.88073L157.416 5.58789ZM164 12.1709L164.707 12.8781L171.293 6.2931L170.586 5.58594L169.879 4.87878L163.293 11.4637L164 12.1709ZM170.586 5.58594L171.293 6.29304C171.475 6.11079 171.724 6 172 6V5V4C171.172 4 170.42 4.33723 169.879 4.87883L170.586 5.58594Z" fill="white" mask="url(#path-8-inside-3_79_802)"/>
<path d="M180 15C180 18.3137 182.686 21 186 21C189.314 21 192 18.3137 192 15V12C192 10.8954 192.895 10 194 10C195.105 10 196 10.8954 196 12V15C196 20.5228 191.523 25 186 25C180.477 25 176 20.5228 176 15V7C176 5.89543 176.895 5 178 5C179.105 5 180 5.89543 180 7V15ZM194 5C195.105 5 196 5.89543 196 7C196 8.10457 195.105 9 194 9C192.895 9 192 8.10457 192 7C192 5.89543 192.895 5 194 5Z" fill="white"/>
<path d="M2.94187 12.5815C1.11426 11.5412 -0.000260782 9.45063 4.57705e-08 7.21366V1.68412C4.57705e-08 0.754001 0.695628 0.000244141 1.55401 0.000244141H5.60387C9.34179 0.000244141 12.2161 2.69902 12.4446 6.26941C12.7714 11.3756 7.85299 15.3773 2.94187 12.5815Z" fill="url(#paint0_linear_79_802)"/>
<path d="M11.038 30H15.8967C18.5071 30 20.8467 28.2554 21.7797 25.614L29.8776 2.68352C30.3348 1.3891 29.4527 0 28.1736 0H23.3149C20.7045 0 18.3649 1.74436 17.4319 4.38605L9.33403 27.3165C8.87706 28.6109 9.75918 30 11.038 30Z" fill="url(#paint1_linear_79_802)"/>
<defs>
<linearGradient id="paint0_linear_79_802" x1="0.116616" y1="8.81614" x2="11.8922" y2="3.96968" gradientUnits="userSpaceOnUse">
<stop stop-color="#4F46E5"/>
<stop offset="1" stop-color="#818CF8"/>
</linearGradient>
<linearGradient id="paint1_linear_79_802" x1="31.7095" y1="2.76788" x2="11.7492" y2="19.9484" gradientUnits="userSpaceOnUse">
<stop stop-color="#4F46E5"/>
<stop offset="1" stop-color="#818CF8"/>
</linearGradient>
</defs>
</svg>
