<svg width="196" height="30" viewBox="0 0 196 30" fill="none" xmlns="http://www.w3.org/2000/svg">
<path d="M58 5C59.1046 5 60 5.89543 60 7C60 11.8378 56.5644 15.8722 52 16.7988V23C52 24.1046 51.1046 25 50 25C48.8954 25 48 24.1046 48 23V16.7988C43.4356 15.8722 40 11.8378 40 7C40 5.89543 40.8954 5 42 5C43.1046 5 44 5.89543 44 7C44 10.3137 46.6863 13 50 13C53.3137 13 56 10.3137 56 7C56 5.89543 56.8954 5 58 5Z" fill="black"/>
<path d="M66 15C66 18.3137 68.6863 21 72 21C75.3137 21 78 18.3137 78 15V7C78 5.89543 78.8954 5 80 5C81.1046 5 82 5.89543 82 7V15C82 20.5228 77.5228 25 72 25C66.4772 25 62 20.5228 62 15V7C62 5.89543 62.8954 5 64 5C65.1046 5 66 5.89543 66 7V15Z" fill="black"/>
<path d="M86 5C87.1046 5 88 5.89543 88 7V21H98C99.1046 21 100 21.8954 100 23C100 24.1046 99.1046 25 98 25H86C84.8954 25 84 24.1046 84 23V7C84 5.89543 84.8954 5 86 5Z" fill="black"/>
<path d="M118 15C118 11.6863 115.314 9 112 9C108.686 9 106 11.6863 106 15V16L118 16V15ZM102 15C102 9.47715 106.477 5 112 5C117.523 5 122 9.47715 122 15V23C122 24.1046 121.105 25 120 25C118.895 25 118 24.1046 118 23V20H106V23C106 24.1046 105.105 25 104 25C102.895 25 102 24.1046 102 23V15Z" fill="black"/>
<path d="M142 5C143.105 5 144 5.89543 144 7V23C144 24.1046 143.105 25 142 25C141.449 25 140.95 24.7768 140.588 24.416L128 11.8281V23C128 24.1046 127.105 25 126 25C124.895 25 124 24.1046 124 23V7C124 5.89543 124.895 5 126 5C126.552 5 127.052 5.22401 127.414 5.58594L140 18.1719V7C140 5.89543 140.895 5 142 5Z" fill="black"/>
<path d="M172 5C173.105 5 174 5.89543 174 7V23C174 24.1046 173.105 25 172 25C170.895 25 170 24.1046 170 23V11.8359L165.416 16.4199L165.411 16.415C165.049 16.7758 164.551 17 164 17C163.448 17 162.949 16.7764 162.587 16.415V16.416L158 11.8281V23C158 24.1046 157.105 25 156 25C154.895 25 154 24.1046 154 23V7C154 5.89543 154.895 5 156 5C156.553 5 157.054 5.22481 157.416 5.58789L164 12.1709L170.586 5.58594C170.948 5.22401 171.448 5 172 5Z" fill="black"/>
<path d="M180 15C180 18.3137 182.686 21 186 21C189.314 21 192 18.3137 192 15V12C192 10.8954 192.895 10 194 10C195.105 10 196 10.8954 196 12V15C196 20.5228 191.523 25 186 25C180.477 25 176 20.5228 176 15V7C176 5.89543 176.895 5 178 5C179.105 5 180 5.89543 180 7V15ZM194 5C195.105 5 196 5.89543 196 7C196 8.10457 195.105 9 194 9C192.895 9 192 8.10457 192 7C192 5.89543 192.895 5 194 5Z" fill="black"/>
<path d="M2.94187 12.5815C1.11426 11.5412 -0.000260782 9.45063 4.57705e-08 7.21366V1.68412C4.57705e-08 0.754001 0.695628 0.000244141 1.55401 0.000244141H5.60387C9.34179 0.000244141 12.2161 2.69902 12.4446 6.26941C12.7714 11.3756 7.85299 15.3773 2.94187 12.5815Z" fill="url(#paint0_linear_79_388)"/>
<path d="M11.0383 30H15.897C18.5073 30 20.8469 28.2554 21.7799 25.614L29.8778 2.68352C30.335 1.3891 29.4529 0 28.1738 0H23.3151C20.7048 0 18.3652 1.74436 17.4322 4.38605L9.33428 27.3165C8.87731 28.6109 9.75943 30 11.0383 30Z" fill="url(#paint1_linear_79_388)"/>
<defs>
<linearGradient id="paint0_linear_79_388" x1="0.116616" y1="8.81614" x2="11.8922" y2="3.96968" gradientUnits="userSpaceOnUse">
<stop stop-color="#4F46E5"/>
<stop offset="1" stop-color="#818CF8"/>
</linearGradient>
<linearGradient id="paint1_linear_79_388" x1="31.7098" y1="2.76788" x2="11.7494" y2="19.9484" gradientUnits="userSpaceOnUse">
<stop stop-color="#4F46E5"/>
<stop offset="1" stop-color="#818CF8"/>
</linearGradient>
</defs>
</svg>
