<svg width="194" height="30" viewBox="0 0 194 30" fill="none" xmlns="http://www.w3.org/2000/svg">
<path d="M58 5C59.1046 5 60 5.89543 60 7C60 11.8378 56.5644 15.8722 52 16.7988V23C52 24.1046 51.1046 25 50 25C48.8954 25 48 24.1046 48 23V16.7988C43.4356 15.8722 40 11.8378 40 7C40 5.89543 40.8954 5 42 5C43.1046 5 44 5.89543 44 7C44 10.3137 46.6863 13 50 13C53.3137 13 56 10.3137 56 7C56 5.89543 56.8954 5 58 5Z" fill="black"/>
<circle cx="70" cy="15" r="8" stroke="black" stroke-width="4"/>
<path d="M84 5C85.1046 5 86 5.89543 86 7V21H96C97.1046 21 98 21.8954 98 23C98 24.1046 97.1046 25 96 25H84C82.8954 25 82 24.1046 82 23V7C82 5.89543 82.8954 5 84 5Z" fill="black"/>
<path d="M116 15C116 11.6863 113.314 9 110 9C106.79 9 104.168 11.5211 104.008 14.6914L104 15V16L116 16V15ZM100.013 14.4854C100.281 9.20167 104.65 5 110 5C115.523 5 120 9.47715 120 15V23C120 24.1046 119.105 25 118 25C116.895 25 116 24.1046 116 23V20H104V23C104 24.1046 103.105 25 102 25C100.895 25 100 24.1046 100 23V15L100.013 14.4854Z" fill="black"/>
<path d="M140 5C141.105 5 142 5.89543 142 7V23C142 24.1046 141.105 25 140 25C139.449 25 138.95 24.7768 138.588 24.416L126 11.8281V23C126 24.1046 125.105 25 124 25C122.895 25 122 24.1046 122 23V7C122 5.89543 122.895 5 124 5C124.552 5 125.052 5.22401 125.414 5.58594L138 18.1719V7C138 5.89543 138.895 5 140 5Z" fill="black"/>
<path d="M170 5C171.105 5 172 5.89543 172 7V23C172 24.1046 171.105 25 170 25C168.895 25 168 24.1046 168 23V11.8359L163.416 16.4199L163.411 16.415C163.049 16.7758 162.551 17 162 17C161.448 17 160.949 16.7764 160.587 16.415V16.416L156 11.8281V23C156 24.1046 155.105 25 154 25C152.895 25 152 24.1046 152 23V7C152 5.89543 152.895 5 154 5C154.553 5 155.054 5.22481 155.416 5.58789L162 12.1709L168.586 5.58594C168.948 5.22401 169.448 5 170 5Z" fill="black"/>
<path d="M178 15C178 18.3137 180.686 21 184 21C187.314 21 190 18.3137 190 15V12C190 10.8954 190.895 10 192 10C193.105 10 194 10.8954 194 12V15C194 20.5228 189.523 25 184 25C178.477 25 174 20.5228 174 15V7C174 5.89543 174.895 5 176 5C177.105 5 178 5.89543 178 7V15ZM192 5C193.105 5 194 5.89543 194 7C194 8.10457 193.105 9 192 9C190.895 9 190 8.10457 190 7C190 5.89543 190.895 5 192 5Z" fill="black"/>
<path d="M2.94187 12.5816C1.11426 11.5413 -0.000260782 9.4507 4.57705e-08 7.21372V1.68418C4.57705e-08 0.754062 0.695628 0.000305176 1.55401 0.000305176H5.60387C9.34179 0.000305176 12.2161 2.69908 12.4446 6.26948C12.7714 11.3756 7.85299 15.3773 2.94187 12.5816Z" fill="url(#paint0_linear_70_353)"/>
<path d="M11.0382 30H15.8969C18.5072 30 20.8469 28.2554 21.7798 25.614L29.8778 2.68352C30.335 1.3891 29.4529 0 28.1738 0H23.3151C20.7047 0 18.3651 1.74436 17.4321 4.38605L9.33422 27.3165C8.87725 28.6109 9.75937 30 11.0382 30Z" fill="url(#paint1_linear_70_353)"/>
<defs>
<linearGradient id="paint0_linear_70_353" x1="0.116616" y1="8.8162" x2="11.8922" y2="3.96974" gradientUnits="userSpaceOnUse">
<stop stop-color="#4F46E5"/>
<stop offset="1" stop-color="#818CF8"/>
</linearGradient>
<linearGradient id="paint1_linear_70_353" x1="31.7097" y1="2.76788" x2="11.7494" y2="19.9484" gradientUnits="userSpaceOnUse">
<stop stop-color="#4F46E5"/>
<stop offset="1" stop-color="#818CF8"/>
</linearGradient>
</defs>
</svg>
