<svg width="1438" height="194" viewBox="0 0 1438 194" fill="none" xmlns="http://www.w3.org/2000/svg">
<path d="M17.4595 0C28.2066 0 36.9189 8.68568 36.9189 19.4V155.2H134.216C144.963 155.2 153.676 163.886 153.676 174.6C153.676 185.314 144.963 194 134.216 194H17.4595C6.7123 194 -2 185.314 -2 174.6V19.4C-2 8.68568 6.7123 0 17.4595 0Z" fill="white"/>
<path fill-rule="evenodd" clip-rule="evenodd" d="M250.973 0C304.709 0 348.27 43.4284 348.27 97C348.27 150.572 304.709 194 250.973 194C197.237 194 153.676 150.572 153.676 97C153.676 43.4284 197.237 0 250.973 0ZM250.973 38.8C218.731 38.8 192.595 64.857 192.595 97C192.595 129.143 218.731 155.2 250.973 155.2C283.214 155.2 309.351 129.143 309.351 97C309.351 64.857 283.214 38.8 250.973 38.8Z" fill="white"/>
<path d="M445.568 48.5C456.315 48.5 465.027 57.1857 465.027 67.9V174.6C465.027 185.314 456.315 194 445.568 194C434.82 194 426.108 185.314 426.108 174.6V67.9C426.108 57.1857 434.82 48.5 445.568 48.5Z" fill="white"/>
<path d="M523.405 0C534.153 0 542.865 8.68568 542.865 19.4C542.865 30.1143 534.153 38.8 523.405 38.8H367.73C356.983 38.8 348.27 30.1143 348.27 19.4C348.27 8.68568 356.983 0 367.73 0H523.405Z" fill="white"/>
<path d="M601.243 97C601.243 129.143 627.38 155.2 659.622 155.2C691.863 155.2 718 129.143 718 97V19.4C718 8.68568 726.712 0 737.459 0C748.207 0 756.919 8.68568 756.919 19.4V97C756.919 150.572 713.357 194 659.622 194C605.886 194 562.324 150.572 562.324 97V19.4C562.324 8.68568 571.037 0 581.784 0C592.531 0 601.243 8.68568 601.243 19.4V97Z" fill="white"/>
<path d="M912.595 0C923.342 0 932.054 8.68568 932.054 19.4C932.054 30.1143 923.342 38.8 912.595 38.8H834.757C824.01 38.8 815.297 47.4857 815.297 58.2C815.297 68.9143 824.01 77.6 834.757 77.6H873.676C905.917 77.6 932.054 103.657 932.054 135.8C932.054 167.943 905.917 194 873.676 194H795.838C785.091 194 776.378 185.314 776.378 174.6C776.378 163.886 785.091 155.2 795.838 155.2H873.676C884.423 155.2 893.135 146.514 893.135 135.8C893.135 125.086 884.423 116.4 873.676 116.4H834.757C802.515 116.4 776.378 90.343 776.378 58.2C776.378 26.057 802.515 0 834.757 0H912.595Z" fill="white"/>
<path d="M1204.49 0C1215.23 0 1223.95 8.68568 1223.95 19.4V174.6C1223.95 185.314 1215.23 194 1204.49 194C1193.74 194 1185.03 185.314 1185.03 174.6V66.3086L1140.43 110.773L1140.38 110.726C1136.86 114.225 1132.01 116.4 1126.65 116.4C1121.28 116.4 1116.42 114.231 1112.9 110.726L1068.27 66.2328V174.6C1068.27 185.314 1059.56 194 1048.81 194C1038.06 194 1029.35 185.314 1029.35 174.6V19.4C1029.35 8.68568 1038.06 0 1048.81 0C1054.19 0 1059.07 2.18069 1062.59 5.70254L1126.65 69.5577L1190.73 5.68359C1194.25 2.17288 1199.11 0 1204.49 0Z" fill="white"/>
<path d="M1282.32 97C1282.32 129.143 1308.46 155.2 1340.7 155.2C1372.94 155.2 1399.08 129.143 1399.08 97V67.9C1399.08 57.1857 1407.79 48.5 1418.54 48.5C1429.29 48.5 1438 57.1857 1438 67.9V97C1438 150.572 1394.44 194 1340.7 194C1286.97 194 1243.41 150.572 1243.41 97V19.4C1243.41 8.68568 1252.12 0 1262.86 0C1273.61 0 1282.32 8.68568 1282.32 19.4V97Z" fill="white"/>
<path d="M1418.54 0C1429.29 0 1438 8.68568 1438 19.4C1438 30.1143 1429.29 38.8 1418.54 38.8C1407.79 38.8 1399.08 30.1143 1399.08 19.4C1399.08 8.68568 1407.79 0 1418.54 0Z" fill="white"/>
</svg>
