<svg width="1440" height="194" viewBox="0 0 1440 194" fill="none" xmlns="http://www.w3.org/2000/svg">
<path d="M19.4595 0C30.2066 0 38.9189 8.68568 38.9189 19.4V155.2H136.216C146.963 155.2 155.676 163.886 155.676 174.6C155.676 185.314 146.963 194 136.216 194H19.4595C8.7123 194 0 185.314 0 174.6V19.4C0 8.68568 8.7123 0 19.4595 0Z" fill="black"/>
<path fill-rule="evenodd" clip-rule="evenodd" d="M252.973 0C306.709 0 350.27 43.4284 350.27 97C350.27 150.572 306.709 194 252.973 194C199.237 194 155.676 150.572 155.676 97C155.676 43.4284 199.237 0 252.973 0ZM252.973 38.8C220.731 38.8 194.595 64.857 194.595 97C194.595 129.143 220.731 155.2 252.973 155.2C285.214 155.2 311.351 129.143 311.351 97C311.351 64.857 285.214 38.8 252.973 38.8Z" fill="black"/>
<path d="M447.568 48.5C458.315 48.5 467.027 57.1857 467.027 67.9V174.6C467.027 185.314 458.315 194 447.568 194C436.82 194 428.108 185.314 428.108 174.6V67.9C428.108 57.1857 436.82 48.5 447.568 48.5Z" fill="black"/>
<path d="M525.405 0C536.153 0 544.865 8.68568 544.865 19.4C544.865 30.1143 536.153 38.8 525.405 38.8H369.73C358.983 38.8 350.27 30.1143 350.27 19.4C350.27 8.68568 358.983 0 369.73 0H525.405Z" fill="black"/>
<path d="M603.243 97C603.243 129.143 629.38 155.2 661.622 155.2C693.863 155.2 720 129.143 720 97V19.4C720 8.68568 728.712 0 739.459 0C750.207 0 758.919 8.68568 758.919 19.4V97C758.919 150.572 715.357 194 661.622 194C607.886 194 564.324 150.572 564.324 97V19.4C564.324 8.68568 573.037 0 583.784 0C594.531 0 603.243 8.68568 603.243 19.4V97Z" fill="black"/>
<path d="M914.595 0C925.342 0 934.054 8.68568 934.054 19.4C934.054 30.1143 925.342 38.8 914.595 38.8H836.757C826.01 38.8 817.297 47.4857 817.297 58.2C817.297 68.9143 826.01 77.6 836.757 77.6H875.676C907.917 77.6 934.054 103.657 934.054 135.8C934.054 167.943 907.917 194 875.676 194H797.838C787.091 194 778.378 185.314 778.378 174.6C778.378 163.886 787.091 155.2 797.838 155.2H875.676C886.423 155.2 895.135 146.514 895.135 135.8C895.135 125.086 886.423 116.4 875.676 116.4H836.757C804.515 116.4 778.378 90.343 778.378 58.2C778.378 26.057 804.515 0 836.757 0H914.595Z" fill="black"/>
<path d="M1206.49 0C1217.23 0 1225.95 8.68568 1225.95 19.4V174.6C1225.95 185.314 1217.23 194 1206.49 194C1195.74 194 1187.03 185.314 1187.03 174.6V66.3086L1142.43 110.773L1142.38 110.726C1138.86 114.225 1134.01 116.4 1128.65 116.4C1123.28 116.4 1118.42 114.231 1114.9 110.726L1070.27 66.2328V174.6C1070.27 185.314 1061.56 194 1050.81 194C1040.06 194 1031.35 185.314 1031.35 174.6V19.4C1031.35 8.68568 1040.06 0 1050.81 0C1056.19 0 1061.07 2.18069 1064.59 5.70254L1128.65 69.5577L1192.73 5.68359C1196.25 2.17288 1201.11 0 1206.49 0Z" fill="black"/>
<path d="M1284.32 97C1284.32 129.143 1310.46 155.2 1342.7 155.2C1374.94 155.2 1401.08 129.143 1401.08 97V67.9C1401.08 57.1857 1409.79 48.5 1420.54 48.5C1431.29 48.5 1440 57.1857 1440 67.9V97C1440 150.572 1396.44 194 1342.7 194C1288.97 194 1245.41 150.572 1245.41 97V19.4C1245.41 8.68568 1254.12 0 1264.86 0C1275.61 0 1284.32 8.68568 1284.32 19.4V97Z" fill="black"/>
<path d="M1420.54 0C1431.29 0 1440 8.68568 1440 19.4C1440 30.1143 1431.29 38.8 1420.54 38.8C1409.79 38.8 1401.08 30.1143 1401.08 19.4C1401.08 8.68568 1409.79 0 1420.54 0Z" fill="black"/>
</svg>
